<svg width="276" height="262" xmlns="http://www.w3.org/2000/svg" xmlns:xlink="http://www.w3.org/1999/xlink" overflow="hidden"><defs><clipPath id="clip0"><rect x="0" y="0" width="276" height="262"/></clipPath></defs><g clip-path="url(#clip0)"><path d="M234 625.346C233.924 625.27 231.789 625.118 229.273 624.965 224.699 624.699 223.06 624.546 220.888 624.165 220.24 624.051 217.419 623.898 214.598 623.784 211.778 623.669 208.423 623.403 207.166 623.174 205.908 622.983 204.497 622.716 204.04 622.64 202.668 622.411 200.343 621.535 199.923 621.077 199.733 620.887 198.589 620.277 197.446 619.781 196.264 619.248 194.701 618.142 193.863 617.228 193.024 616.313 192.147 615.589 191.919 615.589 191.69 615.589 190.813 615.017 189.975 614.331 188.107 612.768 187.002 612.044 183.381 610.138 181.78 609.299 179.15 607.622 177.511 606.402 175.872 605.183 173.737 603.696 172.746 603.124 171.755 602.553 170.916 601.943 170.84 601.79 170.764 601.638 170.497 601.485 170.268 601.485 170.04 601.485 169.315 600.914 168.667 600.266 168.019 599.579 166.495 598.131 165.313 597.026 164.132 595.92 163.141 594.891 163.141 594.701 163.141 594.548 162.645 593.9 161.997 593.29 161.387 592.68 160.853 592.032 160.853 591.804 160.853 590.851 157.118 584.028 156.089 583.113 155.441 582.579 153.84 580.521 152.544 578.615 149.838 574.613 149.495 573.012 151.134 572.135 152.392 571.449 153.992 572.44 153.992 573.965 153.992 575.223 155.479 577.434 158.033 579.949 159.443 581.36 160.549 583.075 162.302 586.62 164.398 590.927 164.932 591.689 167.981 594.739 171.869 598.588 173.737 600.075 175.872 601.066 176.748 601.485 178.464 602.629 179.683 603.658 182.466 605.945 183.571 606.669 185.248 607.393 187.955 608.575 189.251 609.337 190.813 610.633 192.795 612.272 197.37 615.207 197.979 615.207 198.246 615.207 198.818 615.703 199.275 616.351 201.257 618.981 205.069 620.048 213.645 620.391 217.228 620.506 222.031 620.887 224.318 621.192 230.226 621.992 235.677 622.145 237.469 621.497 238.231 621.23 239.832 620.887 240.937 620.772 243.072 620.544 248.675 620.086 249.666 620.048 249.971 620.048 250.314 619.896 250.428 619.743 250.543 619.591 252.182 619.362 254.049 619.21 259.233 618.905 260.796 618.638 261.863 617.914 263.083 617.075 264.15 616.618 267.2 615.55 268.572 615.093 270.973 614.064 272.536 613.263 274.137 612.501 276.119 611.663 276.996 611.434 277.872 611.205 278.825 610.786 279.092 610.519 279.359 610.252 281.494 608.804 283.781 607.279 289.765 603.391 291.404 602.019 293.843 598.931 299.027 592.223 299.98 590.965 300.438 590.05 300.705 589.517 301.467 588.259 302.153 587.23 302.839 586.239 303.411 585.171 303.411 584.866 303.411 584.561 303.601 584.333 303.868 584.333 304.097 584.333 304.211 584.218 304.097 584.104 303.983 583.99 304.364 583.38 304.974 582.694 305.583 582.046 306.384 580.559 306.765 579.416 307.184 578.234 307.909 576.328 308.366 575.185 310.386 570.229 311.911 565.808 312.406 563.368 312.788 561.424 314.16 558.413 314.655 558.413 315.303 558.413 316.409 559.747 316.409 560.548 316.447 560.967 316.104 562.225 315.684 563.368 314.312 567.028 312.521 572.631 312.178 574.384 311.72 576.366 308.48 583.761 307.756 584.371 307.489 584.599 306.27 586.429 305.088 588.449 303.868 590.469 302.305 592.947 301.619 593.938 300.933 594.929 300.361 595.882 300.361 596.035 300.361 596.149 299.866 596.721 299.294 597.254 298.684 597.788 297.617 599.122 296.931 600.151 295.368 602.438 294.758 603.086 291.823 605.64 290.565 606.745 289.346 607.546 289.079 607.432 288.812 607.317 288.545 607.47 288.431 607.737 288.317 608.003 287.211 608.88 285.915 609.719 284.619 610.519 282.599 611.853 281.379 612.615 280.198 613.416 279.054 614.064 278.825 614.064 278.635 614.064 277.606 614.521 276.538 615.017 275.509 615.55 274.442 615.97 274.213 615.97 273.985 615.97 272.803 616.503 271.621 617.113 270.44 617.761 269.487 618.142 269.487 618.028 269.487 617.914 268.877 618.142 268.115 618.6 267.39 619.057 266.552 619.4 266.247 619.4 265.942 619.4 264.455 620.01 262.931 620.734 260.872 621.687 259.424 622.107 257.48 622.221 256.031 622.335 252.677 622.716 250.047 623.021 247.417 623.364 244.33 623.669 243.186 623.746 242.043 623.822 239.565 624.241 237.735 624.699 233.962 625.613 234.229 625.537 234 625.346Z" fill="#000000" fill-rule="nonzero" fill-opacity="1" transform="matrix(1.00005 0 0 -1 -132.734 628.626)"/><path d="M306.841 611.091C306.841 610.862 306.346 610.595 305.698 610.443 305.088 610.29 304.554 610.062 304.554 609.871 304.554 609.68 304.288 609.49 303.944 609.414 303.411 609.337 303.525 609.071 304.44 608.156 305.965 606.555 306.994 605.793 307.947 605.488 308.404 605.335 309.51 604.84 310.386 604.306 311.263 603.81 312.254 603.391 312.597 603.391 312.94 603.391 314.045 602.934 315.075 602.362 316.485 601.6 317.438 601.371 319.001 601.409 320.297 601.409 322.279 601.028 324.337 600.342 326.129 599.77 328.377 599.16 329.33 599.008 330.283 598.855 331.655 598.398 332.418 598.017 333.218 597.635 335.353 597.178 337.487 596.949 341.566 596.53 341.642 596.492 345.568 592.68 346.864 591.461 348.084 590.431 348.236 590.431 348.427 590.431 348.922 589.898 349.342 589.288 349.799 588.564 350.561 588.068 351.286 587.916 352.62 587.687 355.631 584.904 359.443 580.483 360.777 578.92 362.263 577.281 362.759 576.824 363.216 576.366 363.636 575.871 363.636 575.756 363.636 575.528 365.198 573.355 366.914 571.182 367.219 570.763 367.943 569.696 368.515 568.781 369.086 567.904 369.925 566.608 370.382 565.922 371.335 564.588 372.669 561.844 375.071 556.317 375.528 555.288 376.367 553.382 376.938 552.124 377.548 550.866 378.577 548.083 379.264 545.949 379.95 543.776 380.674 542.023 380.864 542.023 381.055 542.023 381.131 541.87 380.979 541.68 380.864 541.451 381.131 539.698 381.589 537.754 382.58 533.485 383.723 527.462 384.181 524.222 384.371 522.926 384.638 521.707 384.752 521.516 384.867 521.287 385.095 519.191 385.21 516.828 385.324 514.426 385.515 512.368 385.629 512.215 385.782 511.91 385.896 511.186 386.506 505.621 386.734 503.525 387.001 501.123 387.078 500.285 387.192 499.446 387.344 497.922 387.421 496.854 387.611 494.644 388.259 491.594 388.755 490.641 388.945 490.298 389.326 488.735 389.555 487.249 389.822 485.724 390.165 484.466 390.356 484.466 390.813 484.466 390.775 483.437 390.241 481.951 389.86 480.921 389.936 480.502 390.661 479.092 391.156 478.177 391.842 477.072 392.261 476.614 392.643 476.195 393.481 474.899 394.091 473.755 394.663 472.612 395.616 470.897 396.111 469.944 396.645 468.991 397.217 467.809 397.369 467.276 397.522 466.78 398.055 465.827 398.551 465.179 399.046 464.531 399.466 463.883 399.466 463.731 399.466 463.616 399.961 462.778 400.609 461.939 402.248 459.652 402.401 458.28 401.257 456.031 399.961 453.515 399.084 453.058 395.654 452.982 389.555 452.829 386.887 451.914 386.887 450.047 386.887 449.589 386.582 447.912 386.201 446.387 385.82 444.825 385.515 442.957 385.553 442.271 385.553 441.585 385.477 441.013 385.324 441.013 385.172 441.013 385.057 440.784 385.095 440.556 385.095 440.289 385.057 439.145 385.057 438.04 384.981 436.325 384.867 435.982 384.066 435.638 383.418 435.334 382.961 435.334 382.351 435.638 380.445 436.668 370.497 436.401 370.497 435.295 370.497 435.143 370.382 434.724 370.268 434.419 370.001 433.656 371.983 431.56 373.394 431.141 374.003 430.95 375.452 430.874 376.595 430.988 384.6 431.56 384.409 431.636 383.99 428.473 383.838 427.1 383.647 425.271 383.609 424.432 383.533 423.594 383.418 422.488 383.304 421.993 383.19 421.497 383.075 419.934 383.037 418.562 382.961 415.894 382.542 413.454 381.169 408.232 378.272 396.95 378.272 396.912 376.329 396.607 375.528 396.492 374.461 396.149 373.927 395.883 372.517 395.12 370.878 394.853 366.952 394.663 365.008 394.587 363.293 394.472 363.064 394.472 361.958 394.358 351.705 394.891 351.438 395.082 351.248 395.196 349.57 395.387 347.703 395.463 345.835 395.539 343.815 395.806 343.205 396.073 341.528 396.721 333.752 396.95 330.664 396.416 329.216 396.187 327.653 395.921 327.234 395.883 325.176 395.692 319.801 391.613 320.373 390.661 320.563 390.394 320.525 390.279 320.259 390.47 319.725 390.813 318.81 388.755 318.315 386.125 317.895 383.647 316.904 381.169 316.371 381.169 316.142 381.169 315.989 380.941 315.989 380.636 315.989 379.873 315.036 379.225 313.626 379.035 312.94 378.921 310.729 378.501 308.747 378.12 305.05 377.358 296.245 376.519 295.711 376.824 295.521 376.938 293.119 376.977 290.337 376.977 283.018 376.862 282.637 376.862 278.254 377.205 274.175 377.51 271.926 377.51 251 377.243 241.395 377.129 238.65 376.977 236.325 376.405 231.522 375.299 230.264 375.147 229.807 375.681 229.578 375.947 229.426 377.32 229.464 378.768 229.578 383.609 228.892 399.275 228.587 399.77 228.397 400.037 228.168 400.838 228.054 401.486 227.901 402.629 227.406 405.259 226.3 411.206 226.072 412.502 225.729 413.569 225.538 413.569 225.385 413.569 225.347 413.759 225.462 413.95 225.729 414.407 223.899 418.448 222.412 420.659 221.879 421.459 220.278 423.365 218.867 424.813 213.379 430.531 209.643 434.686 209.643 434.991 209.643 435.143 209.338 435.295 208.995 435.295 208.652 435.295 208.5 435.41 208.614 435.562 208.766 435.677 208.69 436.02 208.462 436.325 207.89 436.973 205.831 436.934 204.917 436.248 204.192 435.677 204.192 435.638 205.488 434.266 206.213 433.466 207.127 432.513 207.547 432.132 210.901 428.968 212.731 427.138 213.988 425.614 214.827 424.585 216.39 422.907 217.495 421.802 219.668 419.706 222.984 413.874 222.984 412.082 223.022 411.549 223.289 409.986 223.594 408.614 223.899 407.241 224.242 405.45 224.356 404.611 224.471 403.773 224.814 401.791 225.119 400.228 225.538 398.284 225.69 395.235 225.69 390.622 225.652 386.925 225.767 383.799 225.957 383.685 226.11 383.609 226.224 381.627 226.186 379.34 226.11 375.299 226.148 375.109 227.101 373.927 227.825 373.089 228.664 372.593 229.845 372.364 232.856 371.755 233.352 371.716 233.542 372.25 233.809 372.974 235.639 373.508 240.48 374.156 244.063 374.613 248.256 374.728 262.435 374.651 305.888 374.423 306.27 374.423 310.539 375.376 312.673 375.833 314.808 376.214 315.227 376.214 316.142 376.214 318.01 377.167 319.344 378.272 319.877 378.73 320.182 379.454 320.182 380.178 320.22 380.826 320.449 381.779 320.754 382.313 321.059 382.847 321.288 384.104 321.326 385.134 321.326 387.649 323.117 390.508 324.833 390.927 325.481 391.042 326.357 391.499 326.777 391.88 328.873 393.824 337.564 394.434 343.091 393.024 344.653 392.643 347.817 392.185 350.104 392.033 352.429 391.88 355.174 391.69 356.203 391.613 362.149 391.08 370.954 391.499 374.232 392.414 379.683 393.977 380.75 394.815 381.322 398.093 381.474 398.894 381.779 399.847 381.97 400.19 382.923 401.829 385.667 415.208 386.086 420.239 386.353 423.174 386.696 426.338 386.849 427.291 387.039 428.244 387.192 429.883 387.23 430.912 387.268 431.979 387.459 433.428 387.611 434.152 387.802 434.876 387.954 436.782 388.03 438.345 388.107 441.966 388.183 442.576 388.945 445.511 390.127 449.97 389.86 449.78 394.32 449.78 397.788 449.78 398.398 449.894 400.228 450.847 401.867 451.648 402.477 452.257 403.277 453.782 403.849 454.849 404.573 455.726 404.916 455.802 405.297 455.879 405.64 456.488 405.793 457.327 406.022 458.509 405.831 459.119 404.611 461.406 403.811 462.854 402.782 464.607 402.286 465.217 401.371 466.475 399.732 469.41 397.636 473.603 396.912 475.09 395.921 476.843 395.387 477.491 394.015 479.397 392.757 483.132 392.223 486.944 391.995 488.812 391.461 491.327 391.08 492.509 390.661 493.691 390.165 496.244 389.936 498.227 389.708 500.209 389.365 503.105 389.174 504.668 388.983 506.231 388.717 509.09 388.564 510.958 388.45 512.863 388.259 514.655 388.145 514.96 388.069 515.265 387.878 516.751 387.802 518.2 387.725 519.686 387.535 521.211 387.382 521.63 387.268 522.05 387.192 523.117 387.23 523.955 387.268 524.832 387.154 525.671 386.925 525.823 386.696 525.938 386.506 526.7 386.506 527.5 386.506 528.301 386.353 529.444 386.163 530.054 385.934 530.664 385.705 531.769 385.591 532.494 385.477 533.218 385.134 534.933 384.79 536.305 384.486 537.678 384.219 539.126 384.219 539.545 384.219 540.003 383.533 542.404 382.732 544.958 381.322 549.303 380.941 550.332 379.264 554.03 378.882 554.868 378.463 555.974 378.311 556.507 378.158 557.041 377.472 558.566 376.786 559.938 376.1 561.31 375.414 562.835 375.261 563.33 375.109 563.864 374.385 565.16 373.698 566.303 372.974 567.409 372.364 568.438 372.364 568.59 372.326 568.781 371.678 569.658 370.878 570.611 370.115 571.563 369.391 572.516 369.315 572.783 369.239 573.05 367.79 574.994 366.113 577.129 360.205 584.714 350.752 594.243 349.151 594.243 348.465 594.243 347.55 594.853 346.102 596.378 343.281 599.198 340.156 600.532 335.81 600.761 334.857 600.799 333.409 601.104 332.57 601.371 331.732 601.676 329.75 602.171 328.187 602.476 326.624 602.819 325.176 603.239 324.985 603.429 324.756 603.62 324.375 603.772 324.07 603.772 323.803 603.772 322.317 604.382 320.792 605.106 319.267 605.831 317.857 606.44 317.705 606.44 317.552 606.44 316.218 606.784 314.808 607.203 312.445 607.927 312.102 608.156 311.606 609.299 311.339 610.023 310.844 610.633 310.577 610.672 310.31 610.672 309.814 610.748 309.51 610.862 307.527 611.396 306.841 611.434 306.841 611.091Z" fill="#000000" fill-rule="nonzero" fill-opacity="1" transform="matrix(1.00005 0 0 -1 -132.734 628.626)"/><path d="M135.773 585.781C134.705 584.485 134.858 583.38 136.497 580.521 137.373 578.996 138.669 576.9 139.356 575.871 140.08 574.88 140.652 573.889 140.652 573.698 140.652 573.469 141.49 572.478 142.481 571.487 143.93 570.039 144.578 568.933 145.569 566.227 146.865 562.797 147.665 561.463 148.427 561.463 148.656 561.463 149.304 561.882 149.876 562.415 150.448 562.949 151.057 563.368 151.21 563.368 151.362 563.368 152.048 563.635 152.658 563.978 153.306 564.321 155.06 564.969 156.622 565.503 159.253 566.341 160.358 566.951 164.398 569.543 165.275 570.115 166.266 570.611 166.609 570.611 166.952 570.611 167.791 570.801 168.439 571.03 169.392 571.373 169.62 571.64 169.506 572.173 169.392 572.593 169.468 572.898 169.658 572.898 170.268 572.898 170.002 573.622 169.239 574.041 167.943 574.727 163.026 573.05 160.853 571.144 160.129 570.534 156.051 568.705 155.403 568.705 155.136 568.705 154.069 568.285 153.001 567.752 151.972 567.256 150.6 566.723 149.952 566.57 148.885 566.38 148.77 566.456 148.313 567.828 148.046 568.628 147.17 570.229 146.369 571.373 140.88 579.225 138.364 583.532 138.364 585.095 138.364 585.514 138.136 585.857 137.831 585.857 137.526 585.857 137.03 585.934 136.725 586.048 136.459 586.162 136.001 586.048 135.773 585.781Z" fill="#000000" fill-rule="nonzero" fill-opacity="1" transform="matrix(1.00005 0 0 -1 -132.734 628.626)"/><path d="M251 548.808C248.827 547.588 245.854 544.234 245.854 543.052 245.854 542.404 248.103 539.355 248.599 539.355 248.789 539.355 249.247 539.088 249.59 538.745 250.314 538.021 252.067 534.361 251.801 534.133 251.686 534.018 251.762 533.523 251.953 533.027 252.182 532.494 252.182 532.112 251.991 532.112 251.801 532.112 251.267 531.312 250.809 530.359 250.085 528.911 249.818 528.644 249.056 528.796 248.027 528.987 246.388 527.5 246.731 526.624 247.112 525.671 249.209 525.48 250.733 526.242 252.601 527.234 252.868 527.462 254.049 529.787 255.422 532.532 255.422 534.399 254.088 537.449 253.287 539.278 252.601 540.231 251.496 541.032 249.399 542.518 249.17 543.433 250.352 544.996 250.848 545.682 251.686 546.33 252.22 546.444 253.44 546.749 254.354 548.083 253.783 548.77 253.287 549.379 252.029 549.379 251 548.808Z" fill="#000000" fill-rule="nonzero" fill-opacity="1" transform="matrix(1.00005 0 0 -1 -132.734 628.626)"/><path d="M169.239 548.083C168.515 547.626 167.715 546.978 167.448 546.635 167.219 546.292 166.457 546.025 165.771 546.025L164.513 546.025 164.589 537.106C164.703 528.72 164.741 528.148 165.504 527.119 166.457 525.823 166.99 525.747 167.829 526.7 168.248 527.157 168.477 528.072 168.477 529.444 168.477 531.16 168.553 531.388 169.049 530.969 169.354 530.702 169.62 530.245 169.62 529.978 169.62 529.673 169.735 529.444 169.925 529.444 170.078 529.444 170.421 528.911 170.726 528.225 171.412 526.738 174.69 523.346 175.49 523.346 176.176 523.346 177.244 524.375 177.244 525.061 177.244 525.594 175.795 527.157 175.3 527.157 174.804 527.157 172.822 530.702 172.555 532.036 172.365 533.027 172.441 533.256 172.975 533.294 175.147 533.37 178.082 536.915 178.768 540.346 179.15 542.175 179.111 542.747 178.54 544.272 177.053 548.198 172.517 550.066 169.239 548.083ZM173.699 545.644C174.766 545.339 175.719 543.471 175.719 541.718 175.719 540.117 174.309 537.144 173.165 536.42 172.25 535.81 170.65 535.657 169.315 536.077 168.591 536.305 168.477 536.61 168.515 538.326 168.553 542.252 169.049 544.005 170.421 545.148 171.107 545.72 171.946 546.14 172.289 546.063 172.594 545.949 173.241 545.796 173.699 545.644Z" fill="#000000" fill-rule="nonzero" fill-opacity="1" transform="matrix(1.00005 0 0 -1 -132.734 628.626)"/><path d="M181.894 546.521C180.636 545.263 182.123 543.929 184.829 543.929 186.506 543.929 186.849 543.814 187.116 543.09 187.65 541.68 187.993 538.021 187.688 536.877 187.459 536.039 187.269 535.886 186.43 536.039 185.515 536.229 183.342 535.314 183.342 534.781 183.342 534.095 185.363 532.799 186.468 532.722 187.726 532.646 187.726 532.646 187.917 530.397 188.336 525.404 187.535 524.184 185.477 526.547 184.524 527.691 184.029 527.958 183.152 527.843 180.789 527.577 181.017 525.633 183.609 523.651 186.049 521.783 189.746 522.393 190.699 524.832 191.69 527.234 191.576 539.85 190.585 543.776 190.165 545.415 189.86 545.873 188.793 546.368 187.269 547.092 182.58 547.207 181.894 546.521Z" fill="#000000" fill-rule="nonzero" fill-opacity="1" transform="matrix(1.00005 0 0 -1 -132.734 628.626)"/><path d="M198.856 546.292C197.179 546.101 196.531 544.729 196.836 541.909 197.255 538.097 197.713 530.473 197.598 529.444 197.408 528.072 198.704 526.624 199.809 527.005 201.105 527.386 201.219 527.805 201.029 531.045 200.876 533.332 200.914 534.018 201.334 534.056 201.6 534.095 202.63 534.133 203.621 534.171 205.908 534.247 207.28 535.352 206.479 536.458 206.06 537.03 205.488 537.144 203.621 537.106 202.363 537.106 201.219 537.22 201.105 537.373 200.991 537.563 201.105 538.935 201.334 540.422 201.791 543.471 202.21 543.852 204.497 543.205 205.679 542.9 205.984 542.938 206.632 543.586 207.585 544.539 207.547 544.844 206.327 545.644 205.336 546.33 201.715 546.597 198.856 546.292Z" fill="#000000" fill-rule="nonzero" fill-opacity="1" transform="matrix(1.00005 0 0 -1 -132.734 628.626)"/><path d="M260.987 545.53C260.453 544.958 260.339 543.967 260.301 540.46 260.301 538.059 260.148 535.162 259.958 534.018 258.928 527.691 259.005 527.157 261.177 527.157 262.473 527.157 262.511 527.234 262.816 531.007L263.045 533.942 264.836 534.133C265.828 534.247 266.704 534.247 266.78 534.171 266.857 534.095 266.895 533.485 266.819 532.799 266.552 529.94 266.819 525.861 267.276 525.556 268 525.099 269.258 525.175 269.792 525.709 270.325 526.242 270.363 528.491 269.906 530.893 269.715 531.769 269.715 532.608 269.906 532.722 270.097 532.837 270.249 533.294 270.249 533.752 270.249 534.209 270.516 534.895 270.821 535.314 271.278 535.924 271.278 536.191 270.783 537.144 270.44 537.83 270.211 539.126 270.249 540.422 270.363 544.882 270.287 545.377 269.487 545.644 267.962 546.14 267.581 545.263 267.581 541.489 267.581 539.583 267.428 537.83 267.276 537.601 266.857 536.953 264.265 536.572 263.922 537.106 263.769 537.334 263.617 539.126 263.541 541.032 263.464 542.938 263.312 544.882 263.197 545.377 262.931 546.406 261.825 546.483 260.987 545.53Z" fill="#000000" fill-rule="nonzero" fill-opacity="1" transform="matrix(1.00005 0 0 -1 -132.734 628.626)"/><path d="M295.216 545.377C294.377 544.958 293.653 544.539 293.577 544.5 293.5 544.462 293.386 543.662 293.272 542.747 293.157 541.87 293.005 541.032 292.929 540.879 292.852 540.765 292.7 538.249 292.548 535.276 292.281 529.482 292.548 527.805 293.92 526.547 294.796 525.747 297.426 525.671 298.303 526.433 298.57 526.662 299.104 526.738 299.447 526.624 299.752 526.509 300.285 526.624 300.552 526.89 301.657 527.843 302.153 528.225 302.953 528.644 303.944 529.177 305.012 531.16 305.85 534.133 306.689 537.03 306.689 538.402 305.927 540.765 304.44 545.225 299.256 547.474 295.216 545.377ZM300.666 542.747C302.763 540.803 303.373 538.249 302.61 534.704 301.962 531.769 300.095 529.521 297.998 529.177 296.626 528.987 296.588 528.987 296.321 530.397 295.444 535.047 296.245 542.023 297.77 543.166 298.418 543.662 299.942 543.471 300.666 542.747Z" fill="#000000" fill-rule="nonzero" fill-opacity="1" transform="matrix(1.00005 0 0 -1 -132.734 628.626)"/><path d="M213.15 543.662C212.54 542.861 211.816 541.832 211.587 541.337 210.787 539.812 209.986 535.124 209.681 529.825L209.338 524.68 210.329 523.841C210.863 523.346 211.397 522.964 211.549 522.964 212.311 522.964 212.807 524.299 212.731 526.204 212.693 527.348 212.769 528.873 212.883 529.559L213.15 530.855 215.513 528.529C218.105 525.976 220.926 524.108 222.184 524.108 223.403 524.108 223.823 525.556 223.022 526.967 222.565 527.729 221.879 528.225 220.735 528.568 219.249 528.987 218.067 529.902 218.029 530.664 218.029 530.816 218.677 531.274 219.477 531.693 220.24 532.074 221.498 533.142 222.222 534.056 224.013 536.305 224.013 537.83 222.184 540.46 220.545 542.785 219.363 543.776 217.228 544.5 214.903 545.339 214.408 545.225 213.15 543.662ZM217.152 541.261C218.715 539.812 219.935 537.944 219.935 536.953 219.935 536.42 219.554 535.505 219.058 534.933 218.334 534.095 217.762 533.866 216.009 533.713 213.874 533.561 213.836 533.561 213.836 534.552 213.836 536.801 214.713 541.108 215.284 541.565 216.085 542.175 216.237 542.137 217.152 541.261Z" fill="#000000" fill-rule="nonzero" fill-opacity="1" transform="matrix(1.00005 0 0 -1 -132.734 628.626)"/><path d="M234.61 543.891C233.352 543.7 231.827 543.471 231.179 543.395 228.664 543.09 228.702 543.205 228.702 537.487 228.74 531.769 229.388 527.119 230.531 524.946 231.141 523.765 231.599 523.422 233.428 522.85 235.22 522.278 235.829 522.202 236.668 522.583 237.735 523.003 238.536 524.108 238.65 525.251 238.917 527.805 238.078 528.225 236.554 526.319 235.601 525.061 235.563 525.061 234.534 525.709 233.39 526.357 232.551 528.148 232.551 530.016 232.513 531.35 233.085 531.693 237.354 532.684 240.708 533.485 241.166 533.904 240.327 535.505 239.679 536.801 239.031 536.953 237.697 536.115 236.935 535.581 233.009 534.399 232.132 534.399 231.942 534.399 231.827 535.772 231.865 537.449 231.942 540.917 231.713 540.689 235.753 541.108 239.26 541.413 240.937 542.9 239.031 543.929 238.193 544.348 237.85 544.348 234.61 543.891Z" fill="#000000" fill-rule="nonzero" fill-opacity="1" transform="matrix(1.00005 0 0 -1 -132.734 628.626)"/><path d="M279.588 543.09C277.186 541.337 275.662 539.507 275.204 537.868 274.976 536.953 274.747 534.323 274.747 532.036L274.747 527.92 276.272 526.433C277.11 525.633 278.368 524.832 279.054 524.68 279.778 524.527 280.655 524.146 280.998 523.841 281.722 523.193 283.438 523.041 284.009 523.612 284.2 523.803 284.429 524.489 284.581 525.137 284.772 526.128 284.657 526.395 283.933 526.814 283.438 527.081 282.523 527.348 281.913 527.424 280.083 527.615 278.254 528.682 278.216 529.597 278.216 530.016 278.177 531.045 278.139 531.846 278.101 532.837 278.254 533.332 278.635 533.408 279.435 533.637 283.095 534.323 284.734 534.552 286.068 534.743 288.05 536.572 287.478 537.106 286.868 537.716 284.581 537.716 281.989 537.182 280.464 536.877 279.054 536.61 278.825 536.572 278.635 536.534 278.52 536.991 278.597 537.601 278.787 539.278 281.379 541.222 283.438 541.261 284.734 541.261 285.61 541.985 285.191 542.633 284.238 544.081 281.303 544.31 279.588 543.09Z" fill="#000000" fill-rule="nonzero" fill-opacity="1" transform="matrix(1.00005 0 0 -1 -132.734 628.626)"/><path d="M144.844 512.063C144.234 510.5 144.387 509.852 145.569 508.709 146.178 508.099 147.208 506.498 147.856 505.088 148.504 503.715 149.19 502.381 149.342 502.153 149.495 501.924 150.257 500.704 151.096 499.484 151.896 498.227 152.696 497.159 152.811 497.045 152.963 496.931 153.992 495.33 155.098 493.424 156.241 491.556 157.27 489.917 157.385 489.803 157.537 489.688 158.033 489.002 158.49 488.24 158.948 487.516 159.672 486.563 160.129 486.143 160.587 485.762 161.387 484.581 161.883 483.513 162.416 482.484 163.179 481.188 163.598 480.693 163.979 480.159 164.627 479.054 165.008 478.177 165.656 476.69 172.022 469.982 174.728 467.962 175.338 467.504 176.52 466.437 177.396 465.598 179.607 463.464 182.161 461.406 183.533 460.719 184.181 460.376 185.172 459.69 185.782 459.157 186.392 458.623 187.002 458.166 187.192 458.166 187.345 458.166 188.145 457.594 189.022 456.87 189.86 456.184 191.195 455.459 191.995 455.345 193.71 455.04 197.179 453.706 198.78 452.753 199.428 452.372 200.648 452.067 201.677 452.067 203.43 452.067 206.632 451.609 209.453 450.923 210.291 450.733 211.74 450.466 212.693 450.352 213.645 450.237 216.39 449.894 218.791 449.627 225.385 448.789 233.581 448.331 239.565 448.484 244.52 448.598 246.502 448.865 253.783 450.39 255.307 450.733 257.899 451.076 259.5 451.19 262.931 451.419 263.579 451.571 269.83 453.515 273.718 454.697 274.823 455.231 276.043 456.374 276.843 457.175 278.216 458.089 279.016 458.394 279.855 458.737 280.541 459.157 280.541 459.347 280.541 459.538 280.731 459.69 280.96 459.69 281.189 459.69 282.713 461.062 284.352 462.702 285.991 464.379 288.05 466.17 288.926 466.742 290.985 468.038 294.339 471.392 297.16 474.937 298.379 476.5 299.485 477.872 299.599 477.986 301.048 479.435 304.859 483.704 305.24 484.276 308.442 489.345 312.445 497.045 312.368 498.074 312.292 499.408 311.415 500.132 310.119 500.018 309.243 499.942 308.976 499.713 309.052 499.256 309.09 498.913 308.976 498.531 308.747 498.379 308.557 498.265 308.366 497.922 308.366 497.617 308.366 496.969 302.344 486.105 301.314 484.924 300.895 484.428 299.561 482.98 298.303 481.722 297.083 480.464 295.139 478.215 294.034 476.69 292.929 475.204 291.823 473.755 291.595 473.527 291.366 473.26 291.328 473.031 291.48 473.031 291.633 473.031 291.023 472.498 290.146 471.85 289.269 471.202 288.545 470.554 288.545 470.363 288.545 470.172 287.783 469.677 286.83 469.22 285.877 468.762 284.467 467.657 283.666 466.818 280.083 462.778 278.406 461.406 276.424 460.719 275.319 460.338 274.061 459.69 273.68 459.309 272.498 458.128 269.487 456.793 266.933 456.298 265.637 456.069 264.036 455.574 263.312 455.231 262.511 454.811 261.254 454.583 259.767 454.621 258.509 454.659 256.031 454.354 254.24 453.973 252.448 453.592 250.39 453.172 249.666 453.058 248.942 452.905 247.913 452.753 247.379 452.639 243.491 451.876 238.955 451.609 233.276 451.876 229.807 452.029 225.729 452.219 224.242 452.257 222.717 452.334 220.163 452.639 218.524 452.982 216.885 453.287 214.598 453.668 213.455 453.782 212.311 453.897 210.672 454.163 209.834 454.392 208.995 454.583 206.861 455.002 205.069 455.307 199.695 456.222 197.751 456.679 195.54 457.594 194.396 458.089 192.948 458.623 192.338 458.737 191.385 458.928 186.544 461.977 186.011 462.702 185.896 462.854 184.982 463.502 183.914 464.15 181.513 465.713 175.795 471.24 174.576 473.184 174.08 474.022 172.06 476.385 170.116 478.444 167.829 480.883 166.457 482.637 166.304 483.361 166.152 484.085 165.084 485.534 163.369 487.287 161.883 488.812 160.396 490.527 160.091 491.175 159.786 491.785 159.443 492.357 159.329 492.471 159.214 492.585 158.871 493.195 158.566 493.805 158.262 494.453 157.309 495.901 156.47 497.045 154.679 499.522 153.04 502.191 151.553 505.049 150.295 507.565 146.598 512.52 145.759 512.825 145.416 512.978 145.073 512.711 144.844 512.063Z" fill="#000000" fill-rule="nonzero" fill-opacity="1" transform="matrix(1.00005 0 0 -1 -132.734 628.626)"/><path d="M309.51 508.785C307.413 507.794 304.707 506.765 301.696 505.85 300.438 505.469 298.456 504.745 297.312 504.287 296.169 503.83 294.873 503.372 294.453 503.22 292.967 502.801 291.404 501.733 291.29 501.085 291.213 500.704 291.252 500.018 291.366 499.561 291.595 498.684 291.595 498.684 293.386 499.218 294.415 499.561 296.588 500.323 298.265 500.933 299.942 501.543 302.191 502.305 303.22 502.572 304.288 502.839 306.575 503.639 308.328 504.287L311.53 505.469 312.978 504.478C314.846 503.258 319.763 497.121 319.801 496.016 319.801 495.558 319.992 494.72 320.259 494.11 320.487 493.538 320.716 492.966 320.754 492.852 320.792 492.738 321.478 491.251 322.241 489.536 323.651 486.563 324.185 486.029 325.785 485.991 326.662 485.991 327.043 487.363 326.586 488.735 326.357 489.422 326.014 490.069 325.824 490.222 325.671 490.336 325.404 491.251 325.29 492.318 324.985 494.529 323.308 498.036 321.593 500.018 320.907 500.78 320.106 501.886 319.839 502.419 319.572 502.991 318.048 504.706 316.409 506.307 313.016 509.662 312.025 510.005 309.51 508.785Z" fill="#000000" fill-rule="nonzero" fill-opacity="1" transform="matrix(1.00005 0 0 -1 -132.734 628.626)"/></g></svg>